<?xml version="1.0" encoding="utf-8"?>
<!-- Generator: Adobe Illustrator 24.0.0, SVG Export Plug-In . SVG Version: 6.00 Build 0)  -->
<svg version="1.1" id="Слой_1" xmlns="http://www.w3.org/2000/svg" xmlns:xlink="http://www.w3.org/1999/xlink" x="0px" y="0px"
	 viewBox="0 0 70 70" style="enable-background:new 0 0 70 70;" xml:space="preserve">
<style type="text/css">
	.st0{fill:#FFFFFF;}
</style>
<g>
	<path d="M34.9,70c-6,0-11.9-1.5-17.1-4.5c-1-0.5-1.4-1.8-0.8-2.8s1.8-1.4,2.8-0.8c0,0,0,0,0.1,0c12,6.8,27.2,4.7,37-5.1
		c12-12,12-31.6,0-43.7c-12-12-31.6-12-43.7,0c-12,12-12,31.6,0,43.7c0.8,0.8,0.8,2.1,0,2.9s-2.1,0.8-2.9,0
		c-13.7-13.7-13.7-35.9,0-49.5c13.7-13.7,35.9-13.7,49.5,0c13.7,13.7,13.7,35.9,0,49.5C53,66.5,44,70,34.9,70L34.9,70z"/>
	<path class="st0" d="M34.9,70c-6,0-11.9-1.5-17.1-4.5c-1-0.5-1.4-1.8-0.8-2.8s1.8-1.4,2.8-0.8c0,0,0,0,0.1,0
		c12,6.8,27.2,4.7,37-5.1c12-12,12-31.6,0-43.7c-12-12-31.6-12-43.7,0c-12,12-12,31.6,0,43.7c0.8,0.8,0.8,2.1,0,2.9s-2.1,0.8-2.9,0
		c-13.7-13.7-13.7-35.9,0-49.5c13.7-13.7,35.9-13.7,49.5,0c13.7,13.7,13.7,35.9,0,49.5C53,66.5,44,70,34.9,70L34.9,70z"/>
</g>
<path class="st0" d="M43.6,45.5h-2.9c-1.5,0-2.7-1.2-2.7-2.7V24c0-1.5,1.2-2.7,2.7-2.7h2.9c1.5,0,2.7,1.2,2.7,2.7v18.7
	C46.2,44.2,45,45.5,43.6,45.5L43.6,45.5z M40.7,23.3c-0.4,0-0.7,0.3-0.7,0.7v18.7c0,0.4,0.3,0.7,0.7,0.7h2.9c0.4,0,0.7-0.3,0.7-0.7
	V24c0-0.4-0.3-0.7-0.7-0.7L40.7,23.3z"/>
<path class="st0" d="M29.8,45.5h-2.9c-1.5,0-2.7-1.2-2.7-2.7V24c0-1.5,1.2-2.7,2.7-2.7h2.9c1.5,0,2.7,1.2,2.7,2.7v18.7
	C32.4,44.2,31.2,45.5,29.8,45.5L29.8,45.5z M26.9,23.3c-0.4,0-0.7,0.3-0.7,0.7v18.7c0,0.4,0.3,0.7,0.7,0.7h2.9
	c0.4,0,0.7-0.3,0.7-0.7V24c0-0.4-0.3-0.7-0.7-0.7L26.9,23.3z"/>
</svg>
