<?xml version="1.0" encoding="utf-8"?>
<!-- Generator: Adobe Illustrator 24.0.0, SVG Export Plug-In . SVG Version: 6.00 Build 0)  -->
<svg version="1.1" id="Capa_1" xmlns="http://www.w3.org/2000/svg" xmlns:xlink="http://www.w3.org/1999/xlink" x="0px" y="0px"
	 viewBox="0 0 612 612" style="enable-background:new 0 0 612 612;" xml:space="preserve">
<style type="text/css">
	.st0{fill:#FFFFFF;}
</style>
<path class="st0" d="M76.5,191.3h459c42.2,0,76.5-34.3,76.5-76.5s-34.3-76.5-76.5-76.5h-459C34.3,38.2,0,72.5,0,114.7
	S34.3,191.3,76.5,191.3z M535.5,229.5h-459C34.3,229.5,0,263.8,0,306s34.3,76.5,76.5,76.5h459c42.2,0,76.5-34.3,76.5-76.5
	S577.7,229.5,535.5,229.5z M535.5,420.8h-459C34.3,420.8,0,455,0,497.3s34.3,76.5,76.5,76.5h459c42.2,0,76.5-34.3,76.5-76.5
	S577.7,420.8,535.5,420.8z"/>
</svg>
